<?xml version="1.0" encoding="utf-8"?>
<!-- Generator: Adobe Illustrator 21.0.1, SVG Export Plug-In . SVG Version: 6.00 Build 0)  -->
<svg version="1.1" id="Isolation_Mode" xmlns="http://www.w3.org/2000/svg" xmlns:xlink="http://www.w3.org/1999/xlink" x="0px"
	 y="0px" viewBox="0 0 311.6 311.6" style="enable-background:new 0 0 311.6 311.6;" xml:space="preserve">
<style type="text/css">
	.st0{fill:#FFFFFF;}
	.st1{fill:#86754D;}
</style>
<path d="M155.8,311.6C69.9,311.6,0,241.7,0,155.8C0,69.9,69.9,0,155.8,0c85.9,0,155.8,69.9,155.8,155.8
	C311.6,241.7,241.7,311.6,155.8,311.6"/>
<polygon class="st0" points="27.1,159.6 27.1,173.9 26.4,175.4 35.2,175.4 35.2,172.2 33.7,172.8 29.7,172.8 29.7,167.2 33.7,167.2 
	34.4,164.6 29.7,164.6 29.7,160.6 33.7,160.6 35.2,161.3 35.2,158 26.4,158 "/>
<polygon class="st0" points="57.9,160.6 59.4,161.3 59.4,158 49.3,158 49.3,161.3 50.9,160.6 53.1,160.6 53.1,173.9 52.4,175.4 
	56.4,175.4 55.7,173.9 55.7,160.6 "/>
<g>
	<path class="st0" d="M43.4,164.6h-1.6c-1.4,0-1.6-0.5-1.6-1.2v-1.5c0-0.7,0.2-1.2,1.6-1.2h1.4c1.4,0,1.6,0.5,1.6,1.2v0.4l2.6-0.6
		v-0.2c0-1.9-1.2-3.3-4.1-3.3h-1.7c-2.9,0-4.1,1.5-4.1,3.3v2.5c0,1.9,1.2,3.3,4.1,3.3h1.6c1.4,0,1.6,0.5,1.6,1.2v3.2
		c0,0.7-0.2,1.2-1.6,1.2h-1.4c-1.4,0-1.6-0.5-1.6-1.2v-2.1l-2.6,0.7v2c0,1.9,1.2,3.3,4.1,3.3h1.7c2.9,0,4.1-1.5,4.1-3.3v-4.2
		C47.5,166,46.3,164.6,43.4,164.6"/>
</g>
<rect x="59.4" y="172.3" class="st0" width="2.3" height="3.1"/>
<g>
	<path class="st1" d="M75.1,83.4l11.4,11.9l1.4,3.8c4.2-5,9-9.6,14.1-13.5l0.1-0.1l-6.4-6.7l-1.6,3.7l-4.9,4.7L77.9,75.3l4.9-4.7
		L79.7,65l-6,5.8l-7.1-7.4l4.9-4.7l3.8-1.4l-6.1-6.4c-5,4.2-9.8,8.7-14.1,13.5l3.4,1.4l10.9,11.4L75.1,83.4z"/>
	<path class="st1" d="M173.1,40.1l3.4-15.4l-0.7-3.6c2.9,0.4,5.8,0.9,8.7,1.5l1.2,0.3c3.1,0.7,6.2,1.5,9.2,2.4l-1.9,8.7l-3.3-2.4
		l-6.6-1.5l-2.2,10l8.2,1.8l-2.9,5.7l-6.7-1.5L176,62.4l6.6,1.5l4-0.8l-2,9l-0.1,0c-6.1-2.1-12.5-3.5-19-4.2l-0.1,0l2.4-3.3
		l3.6-16.1L173.1,40.1z"/>
	<path class="st1" d="M217.2,80.6c0,0,6-5.6,9-8.3l6.3-5.8l8.4-7.8c3.3-3.1,7.8-3.4,12.6,1.8l2,2.2c4.8,5.2,4.1,9.7,0.8,12.7
		l-1.4,1.3l-6.3-4.6l0.6-0.6c1.3-1.2,1.8-2.3-0.3-4.7c-2.2-2.4-3.4-1.9-4.7-0.7l-21,19.3c-1.2,1.1-1.8,2.3,0.3,4.7
		c2.2,2.3,3.4,1.9,4.7,0.7l9.3-8.6l-2.6-2.8l5.6-3.1l6.7,7.3l-14.7,13.5c-3.3,3.1-7.8,3.4-12.6-1.8l-2-2.2
		C213.2,88.1,213.9,83.6,217.2,80.6"/>
	<path class="st1" d="M254.4,91.9l14.2-6.9l2-2.3c1.9,2.9,3.6,5.9,5.3,9l-3.9,0.2l-30.5,14.9c-1.5,0.8-2.4,1.7-1,4.7
		c1.5,2.9,2.8,2.8,4.3,2l30.5-14.9l2.7-3.1l0.8,1.6c1.3,2.7,2.5,5.4,3.6,8.2l-3.7,0.2l-32.8,16c-4.1,2-8.5,1-11.6-5.3l-1.3-2.6
		c-3.1-6.4-1.2-10.4,2.9-12.4l11-5.4L254.4,91.9z"/>
	<path class="st1" d="M201.1,57l-10.6,13.7l-3.8,2.3l0.2,0.1c3.3,1.2,6.5,2.7,9.5,4.3l0.3,0.2l0.8-3.6l4.7-6.1l5.8,3.4l-3,7
		l-2.8,2.5l0.3,0.2c3,1.9,5.8,3.9,8.5,6.1l0.1,0.1l0.1-4.4l16-38.3l2.7-2.5c-4.2-2.8-8.6-5.3-13.2-7.6l-0.9,3.5l-9.7,12.6L201.1,57z
		 M210.5,65.2l-4.3-2.5L219,45.6L210.5,65.2z"/>
	<path class="st1" d="M94.6,65.4l8.9,14.1l0.8,4.4l0.3-0.2c3.2-2.3,6.5-4.3,9.9-6.1l0.2-0.1l-2.3-2.4l-5.7-17.4l10.3,15.1l0.5,3.3
		l0,0c3.5-1.7,7.2-3.2,11-4.4l0.4-0.2l-2.9-3.1l-13.7-38l0.1-3.7c-3.4,1.1-6.7,2.4-9.9,3.8l2.7,2.8l7.9,21.5L98,32.5
		c-1.9,0.9-3.8,1.8-5.6,2.8l8.3,25.7L88.4,41.7l-0.5-3.9c-3.1,1.8-6,3.6-9,5.6l2.9,2.1L90,58.2L94.6,65.4z"/>
	<path class="st1" d="M56.4,111.7l14.6,8.4l2.4,3.3l0.2-0.4c1.3-3.2,2.7-6.3,4.3-9.2l0,0l-3.5-0.4l-12.3-7.1l1.6-2.8l16.9,5.5
		l0.3-0.4c1.5-2.4,3.2-4.8,5-7.1l0.3-0.4l-4.4,0.2l-15.3-4.9c0.2-3.2-1.3-5.5-3.9-7l-12.4-7.1c-3.7-2.2-8-1.6-11.4,3.7
		c-0.4,0.6-0.8,1.3-1.1,1.9l-0.5,0.8c-1.9,3.4-3.7,6.9-5.4,10.5l3.4,0.4l13.7,7.9L56.4,111.7z M44.3,92c1.7-3,3-2.8,4.5-1.9l9.2,5.3
		c1.5,0.9,2.3,1.9,0.6,4.9l-1.6,2.9l-14.3-8.2L44.3,92z"/>
	<path class="st1" d="M42.7,140.7l21.7,5l3.3,2.4l0-0.3c0.4-4.7,1.2-9.3,2.4-13.8l0-0.1c1.6-6.9-0.8-10.2-5.2-11.2l-42.1-9.6
		c-4.1-0.9-7.6-0.5-9.3,5c-0.2,0.7-0.4,1.4-0.5,2.1l-1.2,5.5c-0.6,3-1.2,6-1.6,9.1l3.5-0.6l20.8,4.7L42.7,140.7z M62.7,134l-0.7,3.2
		l-42.9-9.7l0.8-3.2c0.8-3.3,2.1-3.5,3.8-3.2l37.1,8.4C62.4,130,63.5,130.7,62.7,134"/>
	<path class="st1" d="M144.5,42.4l0.6,22l-1.5,3.8l0.2,0c4-0.5,8-0.8,12.1-0.8c2.5,0,4.9,0.1,7.4,0.3l0.1,0l-0.2-9.2l-3.7,1.7
		l-6.8,0.2l-1.2-47.9l1.5-3.8l-5.1,0.1c-1.9,0.1-3.7,0.3-5.6,0.4l1.6,3.4l0.5,21.3L144.5,42.4z"/>
	<path class="st1" d="M297.4,115.5c0.3,0.9,0.5,1.8,0.7,2.7l3.3,16.4c0,0,0,0.1,0,0.1l-9.1,1.9l0.8-4L292,126l-15.5,3.1l1.7,8.2
		l-6.4-0.3l-1.4-6.7l-21.5,4.4l1.4,6.6l2.3,3.3l-8.8,1.8c-0.6-5.7-1.7-11.2-3.3-16.5c-0.5-1.5-0.9-2.7-0.9-2.8c0,0,0-0.1,0-0.1
		l4,0.8l21.5-4.4l8.3-1.7l20.9-4.2L297.4,115.5z"/>
	<path class="st0" d="M293.4,109.8l1.8-1.3C276,51.9,223.1,10.7,160.5,8.7l-0.8,2.1C221.9,12.4,274.5,53.4,293.4,109.8"/>
	<path class="st0" d="M300.3,142.8c0.4,4.3,0.6,8.6,0.6,13c0,80-65.1,145.1-145.1,145.1c-80,0-145.1-65.1-145.1-145.1
		c0-4.8,0.2-9.5,0.7-14.2L9.3,142c-0.4,4.6-0.7,9.2-0.7,13.8C8.6,237,74.6,303,155.8,303C237,303,303,237,303,155.8
		c0-4.5-0.2-9-0.6-13.5L300.3,142.8z"/>
	<path class="st0" d="M135.5,12.2l-0.9-2c-53.7,7.8-98.1,44.6-116.6,94l2.1,0.5C38.5,55.9,82.4,19.6,135.5,12.2"/>
	<path class="st0" d="M155.8,78.4c42.8,0,77.4,34.7,77.4,77.4c0,5.6-0.6,11.1-1.8,16.4l2,0.8c1.2-5.5,1.9-11.3,1.9-17.2
		c0-43.9-35.6-79.5-79.5-79.5c-43.9,0-79.5,35.6-79.5,79.5c0,5.9,0.7,11.7,1.9,17.3l2-0.8c-1.1-5.3-1.8-10.8-1.8-16.5
		C78.3,113.1,113,78.4,155.8,78.4"/>
	<path class="st0" d="M206.3,214.5c-13.6,11.7-31.2,18.8-50.5,18.8c-19.3,0-36.9-7.1-50.5-18.7l-1.5,1.5
		c13.9,12.1,32.1,19.4,52,19.4c19.9,0,38.1-7.3,52-19.4L206.3,214.5z"/>
	<path class="st1" d="M70.2,187.4c1.3-1.4,3.7-2.7,7.7-2c-1.9-1.5-4.6-2.8-6.8-2.8c-0.7,0-1.4,0.2-1.8,0.7c-0.2,0.2-0.5,0.7-0.5,1.2
		C68.8,184.9,69,186.4,70.2,187.4"/>
	<path class="st1" d="M259.3,222.4c-8.6-4.5-20.2-11.6-27.6-20.1c-2.6,10.7-31.5,43-76,43c-44.5,0-73.3-32.2-76-43
		c-7.4,8.4-18.9,15.5-27.5,20.1c-3,1.6-4.6,4.4-4.6,8.3c0,12,41.8,60.2,108.1,60.2c66.2,0,108.1-48.2,108.1-60.2
		C263.9,226.8,262.4,224,259.3,222.4"/>
	<path class="st1" d="M241.4,187.4c-1.3-1.4-3.7-2.7-7.7-2c1.9-1.5,4.6-2.8,6.8-2.8c0.7,0,1.4,0.2,1.8,0.7c0.2,0.2,0.5,0.7,0.5,1.2
		C242.9,184.9,242.7,186.4,241.4,187.4"/>
	<path class="st1" d="M242,204c0.3-0.4,1.1-0.2,1.7,0.3c4,3.5,12.4,8.9,22.8,12.6c0.7,0.3,1.9,0.2,2.6-0.2c0.1,0,0.1-0.1,0.2-0.1
		c0.7-0.4,0.6-0.8-0.1-1c-8.7-2.5-15.8-6.7-18.5-8.4c-0.7-0.4-1-1-0.8-1.4c0.2-0.3,0.9-0.2,1.6,0.2c2.8,1.8,10.3,6.2,19.4,8.6
		c1.2,0.3,2.2-0.2,3.1-0.8c1-0.7,1.9-1.4,2.6-2.3c0.7-0.9,1.3-2,1.7-3c0.6-1.5,0.8-3,0.8-4.6c0-2.2-1.6-3.9-3.9-4.2
		c-11.5-1.4-24.2-4.4-31.1-14.2c0.8,2.8-3.1,5.6-7.7,7.5c-3.1,1.3-6.8,2.9-11.4,5.4c-7.9,4.2-9.5,8-9.5,10.3c0,1.4,1.1,2.3,2.3,2.3
		c2.2,0,5.1-2,6.4-6.5c1.2-4.4,3.3-7,5.7-7c2,0,2.9,1.2,3.8,2.3c5.4,6.7,16.3,15,28.1,19.3c0.8,0.3,1.9,0.4,2.6,0
		c0.2-0.1,0.4-0.2,0.5-0.3c0.3-0.1-0.1-0.5-0.8-0.8c-10-3.8-18-9.1-21.8-12.5C241.8,205,241.6,204.3,242,204"/>
	<path class="st1" d="M69.7,204c-0.3-0.4-1.1-0.2-1.7,0.3c-4,3.5-12.4,8.9-22.8,12.6c-0.7,0.3-1.9,0.2-2.6-0.2
		c-0.1,0-0.2-0.1-0.2-0.1c-0.7-0.4-0.6-0.8,0.1-1c8.7-2.5,15.8-6.7,18.5-8.4c0.7-0.4,1-1,0.8-1.4c-0.2-0.3-0.9-0.2-1.6,0.2
		c-2.8,1.8-10.3,6.2-19.4,8.6c-1.1,0.3-2.2-0.2-3.1-0.8c-1-0.7-1.9-1.4-2.6-2.3c-0.7-0.9-1.3-2-1.7-3c-0.6-1.5-0.8-3-0.8-4.6
		c0-2.2,1.6-3.9,3.9-4.2c11.5-1.4,24.2-4.4,31.1-14.2c-0.8,2.8,3.1,5.6,7.7,7.5c3.1,1.3,6.8,2.9,11.4,5.4c7.9,4.2,9.5,8,9.5,10.3
		c0,1.4-1.1,2.3-2.3,2.3c-2.2,0-5.1-2-6.4-6.5c-1.2-4.4-3.3-7-5.7-7c-2,0-2.9,1.2-3.8,2.3c-5.4,6.7-16.3,15-28.1,19.3
		c-0.8,0.3-1.9,0.4-2.6,0c-0.2-0.1-0.4-0.2-0.5-0.3c-0.3-0.1,0.1-0.5,0.8-0.8c10-3.8,18-9.1,21.8-12.5C69.8,205,70,204.3,69.7,204"
		/>
	<path d="M114.7,267.4c1-0.6,1.7-1.4,2.1-2.2c0.7-1.8,0.5-4.2,0.6-6.4c0.1-2.2,0.6-4,2.4-4.7l-2.3-0.8c-1.1-0.5-2.3-1-2.3-1
		c-0.6,1.5-3.4,3.7-6.3,4.8c-0.2,0.1-0.4,0.1-0.6,0c0,0-0.3-0.1-0.6-0.3c-0.3-0.2-0.6-0.3-0.6-0.3c0.5,0.7-0.5,1.4-1.5,1.4
		c-0.6,0-1.1-0.1-1.4-0.3c0,0-0.1-0.1-0.1-0.1c1.1-0.9,2-2,2.7-3.2c1.5-2.6,0.9-5.7-1.6-7.1c-1.8-1.1-3.6-1.3-5.6-1
		c-1.9,0.3-3.8,1-5.6,2.2c-0.1,0.1-0.4,0.1-0.5,0l-1.1-0.8c0.4,0.8,0.1,1.7-0.7,2.5c-1.3,1.2-2,2.6-2.2,4c-2.3,0.3-5.1,0.1-6.8-1.2
		c-2.2-1.7-3.7-4.5-4.3-6.3c3.4-0.6,7.1-2.4,10.7-4.4c1.2-0.7,2.4-1.4,3.5-2.1c0.3,0.3,0.7,0.7,1.1,1c2.2,1.5,5,2,7.4,1.6
		c2.5-0.5,4.6-1.7,5.7-3.2c1.3-1.9,1.4-4,0-5.4c-0.3-0.3-0.6-0.6-1-0.9c-1.6-1.1-3.5-1.1-5.8-0.5c-2.1,0.5-4.6,1.7-7.2,3.2
		c-0.8-1.7-0.7-3.3-0.3-3.8c-1.2,0.2-2.3,1.2-2.2,2.7c0,0.6,0.1,1.4,0.4,2.3c-1.1,0.6-2.2,1.2-3.3,1.9l-0.6,0.3
		c-0.1,0.1-0.4,0-0.5-0.1l-1.2-1.1c0.5,1.1-0.5,2.3-1.8,3c-2.1,1.1-4.1,1.9-5.9,2.4c-0.5-1.4-1.1-2.7-1.8-3.9
		c-0.3-0.5-0.7-1-1.1-1.4c-1-1-2.4-1.7-3.7-1.9c-1.2-0.3-2.5-0.1-3.4,0.6c-1.7,1.3-1.9,3.4-0.5,5.4c0.3,0.5,0.7,1,1.2,1.5
		c1,1,2.1,1.8,3.3,2.3c1.2,0.5,2.5,0.7,3.7,0.8c0.4,1.7,0.9,3.6,1.9,5.6c1.1,1.9,2.7,3.9,5.2,5.8c1.5-1.2,4.6-2,7.4-2.1
		c0.4,1.3,1.2,2.5,2.6,3.4c2.3,1.4,5.7,1.4,8.8,0c0.3,0.2,0.6,0.4,0.9,0.6c3.7,2,8.5-0.4,12-3c-0.2,2.2,0,4.8-1,6.4
		c-0.5,0.8-1.2,1.3-1.9,1.5c-0.7-0.7-1.3-1.4-1.9-2.1c-1.5-1.9-3.7-1.5-4.4-0.3c-0.7,1.3,0,3.7,3,5c1,0.4,2,0.7,3,0.7
		c2.5,1.3,5.8,1.6,7.7,1l1.1-2.2C118.1,268.1,116.3,267.9,114.7,267.4 M104.2,235.8c0.1,0.1,0.2,0.1,0.2,0.2
		c0.4,0.5,0.5,1.3-0.2,2.3c-1.6,2.2-6.3,2.8-9,0.9l-0.3-0.3C99.3,236.2,102.4,234.6,104.2,235.8 M70.4,242.3
		c-0.3-0.3-0.5-0.6-0.7-0.9c-0.5-0.8-0.6-1.6-0.1-2c0.5-0.4,1.7-0.3,2.8,0.8c0.2,0.2,0.5,0.5,0.6,0.8c0.5,0.8,0.9,1.9,1.2,3
		C72.8,243.9,71.5,243.3,70.4,242.3 M103.1,253.4L103.1,253.4c-2.4,0.3-3.7,1.5-3.8,2.9c-2.1,0.9-4.3,1.1-5.5,0.3
		c-1.7-1-0.6-3.1,2.3-5.1c2.9-2,5.8-3,7.5-2C104.7,250.3,104.5,251.7,103.1,253.4"/>
	<path d="M242.3,239.4c-0.1-1.1-0.6-2.1-1.2-2.8c-1.3-1.4-3.7-2.2-5.6-3.2c-1.9-1-3.4-2.2-3.3-4c0,0-0.9,0.8-1.7,1.7
		c-0.4,0.4-0.9,0.9-1.2,1.2c-0.3,0.3-0.6,0.5-0.6,0.5c1,1.4,1.8,4.3,1.8,7.7c0,0.2-0.1,0.4-0.2,0.5c0,0-0.4,0.4-0.9,0.8
		c-0.4,0.4-0.9,0.8-0.9,0.8c0.7-0.1,1.3,0.6,1.5,1.6c0.1,0.7,0,1.8-0.3,2.4c-0.8,2.7-2.2,5.3-4.3,6.6c-1.4,0.9-2.7,0.6-3.6-0.7
		c-0.1-0.1-0.2-0.3-0.2-0.4c1.4-1.4,3-3.2,3.6-5.4c0.7-2.1,0.6-4.3-0.7-6c-1.2-1.4-3.2-1.8-4.7-0.7c-1.5,1.2-2.4,2.7-2.8,4.6
		c-0.4,1.8-0.2,4,0.2,5.9c0,0.2-0.1,0.4-0.2,0.5l-1,0.6c0.9-0.1,1.6,0.6,2,1.7c0.2,0.4,0.4,0.8,0.5,1.2c-0.5,2.1-1.8,4.3-2.9,5
		c-0.8,0.5-1.2,0.2-1.5-0.4c-0.2-0.5-0.5-1.7-0.7-3.3c0,0-0.5-5.5-1.5-10.8c-0.5-2.7-0.9-5.2-1.4-7.2c-0.5-2-0.8-3.3-0.8-3.3
		s-0.8,0.5-1.5,1c-0.8,0.5-1.6,0.9-1.6,0.9s0.9,4.5,1.6,9.2c0.3,2.4,0.6,4.7,0.8,6.4c0.2,1.8,0.3,3,0.3,3c0,0.2-0.1,0.4-0.3,0.4
		l-1.4,0.7c0.6,0,1,0.3,1.4,0.7c0.4,0.5,0.6,1.4,0.6,1.7c0,0.2,0,0.4,0.1,0.6c-0.5,1.1-1.3,2.4-2.3,3.4c-1,1-2.2,2-3.6,2.6
		c-1.5,0.7-2.7,0.1-3.3-1.4c0-0.1-0.1-0.3-0.2-0.4c1.7-1,3.5-2.7,4.7-4.6c1.2-1.9,1.5-4.1,0.5-6.1c-0.8-1.7-2.7-2.4-4.4-1.7
		c-1.8,0.8-2.9,2.2-3.7,4c-0.8,1.7-1.1,3.7-1.1,5.7c0,0.2-0.1,0.4-0.3,0.4l-1.1,0.4c0.9,0.1,1.4,0.9,1.6,2.1
		c0.1,0.4,0.2,0.9,0.3,1.3c-1,1.3-2.5,3.1-4.5,4.6c0.8-6.2,1.2-12.5,1.3-14.8c0,0-0.9,0.3-1.9,0.7c-0.5,0.2-0.9,0.3-1.3,0.5
		c-0.3,0.1-0.6,0.2-0.6,0.2s0,0.3,0,0.8c-0.8-0.4-2-0.6-3.6-0.1c-1,0.3-1.8,0.8-2.6,1.3c-0.8,0.5-1.5,1.2-2.1,2
		c-1.2,1.6-2,3.5-2.4,5.5c0,0.2-0.2,0.3-0.4,0.4l-1.3,0.2c0.9,0.2,1.3,1.2,1.3,2.3c0,0.7,0,1.5,0.2,2.2c-1.2,1.3-2.7,2.4-3.8,2.6
		c-1.3,0.2-1.7-0.6-0.9-3.3c0.7-2.7,1.9-5.4,1.6-7.2c-0.3-2.2-2.4-3.2-4.3-2.9c-2.1,0.3-3.7,1.4-4.9,2.5c-0.1-0.9-0.4-1.4-0.6-1.7
		c-0.1-0.1-0.3-0.2-0.4-0.1c0,0-0.9,0.4-1.7,0.8c-0.9,0.3-1.8,0.7-1.8,0.7c0.6,0.7,0.6,2.6,0.1,4l-0.6,1.6c-0.1,0.2-0.2,0.3-0.4,0.3
		l-1.6,0c0.5,0.2,0.7,0.6,0.9,1.1c0.1,0.7-0.1,1.5-0.3,2l-0.3,0.8c-0.4,0.9-1.5,2-2.8,2.9c-1.4,0.8-3,1.3-4.6,1.3
		c-1.4,0-2.6-1-2.2-3.4c0.1-0.8,0.7-2.5,1.6-4.7c3.1,0,5.7-1.1,7.3-4.8c-0.8,0.7-1.3,1.1-2,1.3c-0.7,0.2-1.7,0.2-3.6,0.2
		c-0.1,0-0.2,0-0.4,0c1.1-2.9,2.3-6.2,3.4-9c1.1-2.8,2-5.2,2.6-6.2c-0.7-0.2-1.4-0.4-2-0.5c-0.7-0.2-1.3-0.3-1.9-0.3
		c-1.4,0-2.6,0.2-3.9,0.7c-1.2,0.5-2.4,1.1-3.6,2.1c-1.2,0.9-2.4,2.2-3.7,3.7c-1.3,1.4-2.6,3.2-4,5.2c-0.7,1-1.4,2-2.1,2.8
		c-0.1,0.1-0.3,0.2-0.5,0.2c0,0-0.5-0.1-1-0.2c-0.5-0.1-1-0.2-1-0.2c1.1,0.8,0.3,2.8-0.9,4.1c-4.1,3.9-7,4.8-8.9,4.3
		c-1.6-0.5-2.3-1.8-1.5-3.4c-3,1.6-2.4,5,1.9,6.3c2,0.4,4.2,0,6.5-1.1c2.3-1.1,4.6-3.1,6.7-5.5c1.2-0.4,2.8-0.4,4.5-0.5
		c1.7-0.1,3.3,0.1,4.6,0.3c-0.5,1.2-1,2.4-1.3,3.3c-1,2.9-1.3,5.2-0.8,6.8c0.3,0.8,0.7,1.5,1.4,2c0.7,0.5,1.6,0.9,2.8,1.1
		c0.3-2.1,5.7-2.5,7.7-4.6v1.5l4-0.1c0,0,1.1-2.5,2.1-5.1c0.5-1.2,1-2.6,1.3-3.5c0.3-1,0.6-1.6,0.6-1.6c0.6-1.1,2.2-4.1,4.5-4.3
		c2.1-0.3,1.2,2.5,0.7,3.8c-1.4,3.9-1.8,6.5-1.2,8.1c0.6,1.6,2,2.2,3.8,1.9c1.8-0.3,4.4-1.9,6.3-3.6c1.1,1.4,3,2.1,4.8,1.7
		c0.5-0.1,0.9-0.3,1.3-0.5v0c-1.3,1.2-2.9,2.6-4,4.1c-1.2,1.5-1.6,2.9-1.3,4.3c0.3,1.7,1.8,2.9,4.2,2.3c2.2-0.5,3.8-1.9,4.9-3.9
		c1.1-2.1,1.8-5,2.2-8.4c1.1-0.7,2.2-1.6,3.3-2.6c1-1,1.9-2,2.6-2.8l0,0c1.3,1.8,3.7,2.5,6.3,1.3c1.9-0.8,3.4-2,4.5-3.1
		c1.2-1.2,2-2.6,2.5-3.7c1.1,1.5,2.5,2.1,4.4,1.1c1.8-0.9,3.7-3.8,4.7-6.2c1.7,1.4,4,1.3,6.2-0.2c0.9-0.6,1.7-1.3,2.3-2
		c0.7-0.7,1.3-1.6,1.8-2.5c1-1.7,1.7-3.6,2.1-5.5c0.8-3.9,0.5-7.7,0-10.4c1.9,1.1,4.3,1.9,5.4,3.5c0.5,0.7,0.7,1.6,0.6,2.4
		c-0.9,0.4-1.9,0.6-2.7,0.8c-2.3,0.5-2.9,2.7-2,3.9c0.9,1.2,3.4,1.5,5.9-0.7c0.8-0.7,1.5-1.6,1.9-2.5c2.2-1.8,3.9-4.6,4.1-6.6
		l-1.5-1.9c0.1,0.8-0.1,1.6-0.4,2.4C243.4,238.1,242.9,238.7,242.3,239.4 M221.3,242.6c0.5-0.4,1-0.4,1.4,0.1
		c0.6,0.9,0.6,2.2,0.2,3.5c-0.5,1.3-1.3,2.6-2.2,3.3C220,246.8,219.9,243.6,221.3,242.6 M202,253.9c0.5-0.2,1.1-0.1,1.3,0.4
		c0.9,1.9-1.3,5-3.4,6.3C199.8,257.8,200.4,254.6,202,253.9 M141.3,264.5c0.4-0.6,0.8-1.2,1.2-1.8c2.5-4.1,4.8-7,6.8-8.7
		c2-1.8,3.8-2.7,5.4-2.5c-0.9,2.3-3.1,7.7-5.2,12.5C147,263.4,144,263.1,141.3,264.5 M182.9,269.5c-0.5-2.1,0-4.5,0.8-6.4
		c0.9-1.9,2.1-3.4,3.5-3.9c1-0.3,1.8-0.1,2.4,0.4c-0.2,2.5-0.5,5.9-0.9,8.9c-0.3,0.5-0.7,1.1-1.3,1.6c-0.6,0.5-1.3,0.8-2.1,1
		C183.9,271.5,183.2,270.8,182.9,269.5 M184.6,282.1c-0.7,0.2-1.1-0.1-1.2-0.7c-0.1-1.3,2-3.9,4.2-5.8
		C187.1,279,185.9,281.8,184.6,282.1"/>
</g>
<polygon class="st0" points="259.5,161.1 261.1,160.4 267.3,160.4 262.4,173.7 261.3,175.3 265.2,175.3 265,173.7 269.9,160.4 
	269.9,157.8 259.5,157.8 "/>
<g>
	<path class="st0" d="M278.2,157.8h-2.6c-3,0-4.1,1.5-4.1,3.4l2.6,0.5c0-0.7,0.2-1.2,1.6-1.2h2.4c1.4,0,1.6,0.5,1.6,1.2l0,1.2
		c0,0.8-0.2,1.6-1.6,1.6h-3.8l0.7,2.6h3.2c1.4,0,1.6,0.8,1.6,1.7v2.8c0,0.7-0.2,1.2-1.6,1.2h-2.4c-1.4,0-1.6-0.5-1.6-1.2v-1.9
		l-2.6,0.7v1.7c0,1.9,1.2,3.4,4.1,3.4h2.6c3,0,4.1-1.5,4.1-3.4v-3.3c0-1.1-0.3-2.3-1.7-3c1.4-0.6,1.7-1.9,1.7-3v-1.6
		C282.3,159.3,281.1,157.8,278.2,157.8"/>
</g>
<polygon class="st0" points="254.7,161.8 257,162.7 257,157.8 254.7,157.8 "/>
<g>
	<path class="st1" d="M210.7,148.9c8.3,4.7,12,8.5,13.3,10.8c0.4,0.7,0.5,2,0.4,2.7c-0.5,5.6-1.8,11.2-3.7,16.5
		c-1.9-5.9-6.6-11.9-14-15.6c1.2-4.4,2.1-9,2.7-13.7C209.4,148.8,210,148.5,210.7,148.9 M209.8,143.9c0.2-4.1,0-8.1-0.5-12
		c-0.1-0.8,0.4-1.2,1.1-0.9c3.6,1.4,6.5,2.1,8.9,1.9c0.8-0.1,1.6,0.4,1.9,1.2c2.1,6.5,3.3,13.2,3.5,20
		C221.5,150.9,216.5,147.4,209.8,143.9 M219.2,129c-2.5,0.2-6.1-0.9-11-3.3c-2.1-9.7-6-18.1-10.5-24.6c1,0.8,2,1.6,3,2.4
		C209,110.7,215.2,119.4,219.2,129 M183.4,92.7c7.4,3.8,16.1,15.1,20.2,30.4c-4.3-2.7-8.1-5.7-12-8.9c-6.2-5.1-13.2-10.8-24-16.3
		c-11.1-5.6-21.5-8.4-31.1-8.2C151.9,85.3,168.5,86.2,183.4,92.7 M165.8,101.5c10.4,5.2,16.9,10.6,23.2,15.8
		c4.6,3.8,9,7.4,14.4,10.4c0.7,0.4,1.3,1.3,1.5,2.1c0.6,3.9,0.9,7.9,0.9,12.1c-40-19.3-91.5-18.8-117.6,0.8
		c2.2-11.4,7.3-22.3,15.3-31.7c3-3.5,6.2-6.6,9.7-9.3C127.5,91.2,145.2,91.1,165.8,101.5 M204.4,145.6c0.7,0.3,1.2,1.2,1.1,2
		c-0.5,4.9-1.3,9.6-2.6,14.1c-21.5-8.1-41.5,2.2-60,13.7c-16.8,10.3-39.3,15.9-50.8,5c-0.6-0.5-1.2-1.6-1.5-2.4
		c-3.2-9.5-4.4-19.6-3.3-29.6C110.7,127.5,164.4,126.2,204.4,145.6 M145,178.8c17.4-10.7,36-20.4,55.5-13.7c0.7,0.2,1.1,1.1,0.9,1.8
		c-7,20.9-21.2,36.5-34.3,45.2c-12,8-24.3,11.3-33.2,8.9c-8.2-2.7-16-7.1-23-13c-7.1-6.1-12.6-13.3-16.6-21.2
		C108,194.3,129.1,188.6,145,178.8 M169.3,215.5c13.6-9.1,28.4-25.3,35.8-47c0.2-0.7,1-1.1,1.7-0.7c8,4.7,11.1,12.1,10.9,17.3
		c0,0.8-0.4,2-0.8,2.7c-2.4,4.5-5.3,8.8-8.7,12.9c-15,17.4-36.8,25.5-58.1,23.8C156.2,222.8,162.8,219.8,169.3,215.5"/>
</g>
<g>
	<g>
		<path d="M172.4,147.1l-53.5,13.7c-4.5,1.1-8.1,0.9-10.1-0.6c-5.2-3.9-1.1-11.6,0.3-13.9c-2.6,2.8-5.2,5.6-7.2,8.7
			c-3.2,4.8-4.6,10.1-2.5,13.5c3.8,6.1,12.9,3.4,18.8,1L172.4,147.1z"/>
	</g>
</g>
</svg>
